<?xml version="1.0" encoding="UTF-8"?>
<svg id="Capa_1" data-name="Capa 1" xmlns="http://www.w3.org/2000/svg" version="1.1" viewBox="0 0 150 150">
  <defs>
    <style>
      .cls-1 {
        fill: #f9e344;
      }

      .cls-1, .cls-2 {
        stroke-width: 0px;
      }

      .cls-2 {
        fill: #0095a9;
      }
    </style>
  </defs>
  <path class="cls-1" d="M63.7,4.5c-18.1,0-31.9,16.3-28.8,34.3.4,2.3,2.6,3.8,4.8,3.4,2.3-.4,3.8-2.5,3.4-4.8-2.2-12.8,7.7-24.5,20.6-24.5s22.8,11.6,20.6,24.5c-.4,2.3,1.1,4.4,3.4,4.8,2.3.4,4.4-1.1,4.8-3.4,3-17.9-10.8-34.2-28.8-34.2Z"/>
  <path class="cls-2" d="M108,71.2c-3.1-6.2-10.6-8.5-16.6-5.5-2.8-5.6-9.4-8.2-15.2-6.1v-25.5c0-6.8-5.5-12.5-12.2-12.6-7-.2-12.9,5.4-12.9,12.5v64.1l-4.9-5.1c-4.7-4.9-12.5-5.3-17.5-.8-5.2,4.7-5.5,12.8-.7,17.9l28.1,30c3.9,4.2,9.4,6.6,15.2,6.6h33.9c11.5,0,20.8-9.3,20.8-20.8v-43.3c0-9.2-9.7-15.3-18-11.2Z"/>
</svg>